<svg xmlns="http://www.w3.org/2000/svg" xmlns:xlink="http://www.w3.org/1999/xlink" width="180" zoomAndPan="magnify" viewBox="0 0 135 135.000003" height="180" preserveAspectRatio="xMidYMid meet" version="1.0"><defs><g/><clipPath id="eaaa761e17"><path d="M 0.496094 0 L 134.503906 0 L 134.503906 134.007812 L 0.496094 134.007812 Z M 0.496094 0 " clip-rule="nonzero"/></clipPath><clipPath id="706285548f"><path d="M 46 67 L 63 67 L 63 101.757812 L 46 101.757812 Z M 46 67 " clip-rule="nonzero"/></clipPath><clipPath id="4349e96690"><path d="M 14 57 L 52 57 L 52 101.757812 L 14 101.757812 Z M 14 57 " clip-rule="nonzero"/></clipPath><clipPath id="c85961b237"><path d="M 74 67 L 117.816406 67 L 117.816406 101.757812 L 74 101.757812 Z M 74 67 " clip-rule="nonzero"/></clipPath><clipPath id="616da71a89"><path d="M 74 24.332031 L 94 24.332031 L 94 44 L 74 44 Z M 74 24.332031 " clip-rule="nonzero"/></clipPath></defs><g clip-path="url(#eaaa761e17)"><path fill="#ffffff" d="M 0.496094 0 L 134.503906 0 L 134.503906 141.453125 L 0.496094 141.453125 Z M 0.496094 0 " fill-opacity="1" fill-rule="nonzero"/><path fill="#ffffff" d="M 0.496094 0 L 134.503906 0 L 134.503906 134.007812 L 0.496094 134.007812 Z M 0.496094 0 " fill-opacity="1" fill-rule="nonzero"/><path fill="#ffffff" d="M 0.496094 0 L 134.503906 0 L 134.503906 134.007812 L 0.496094 134.007812 Z M 0.496094 0 " fill-opacity="1" fill-rule="nonzero"/></g><path fill="#9dcbf4" d="M 42.726562 68.421875 C 42.484375 68.488281 42.257812 68.59375 42.054688 68.742188 C 40.570312 70.246094 39.316406 71.921875 38.292969 73.769531 C 36.714844 75.976562 35.210938 78.242188 33.777344 80.570312 C 33.234375 81.324219 32.886719 82.15625 32.730469 83.074219 C 32.738281 84.441406 33.167969 85.660156 34.019531 86.730469 C 34.609375 87.644531 35.496094 88.609375 36.492188 88.316406 C 36.925781 88.121094 37.285156 87.835938 37.566406 87.453125 C 38.800781 85.734375 40.324219 84.328125 42.136719 83.234375 C 42.585938 82.984375 43.0625 82.828125 43.570312 82.761719 C 44.078125 82.695312 44.582031 82.722656 45.078125 82.84375 C 45.578125 82.964844 46.035156 83.171875 46.457031 83.46875 C 46.875 83.761719 47.226562 84.125 47.511719 84.550781 C 48.316406 86.03125 48.019531 88.046875 48.855469 89.496094 C 49.0625 89.9375 49.402344 90.214844 49.875 90.332031 C 50.492188 90.332031 51.058594 89.847656 51.378906 89.253906 C 51.667969 88.542969 51.867188 87.808594 51.972656 87.046875 C 52.074219 86.285156 52.085938 85.523438 51.996094 84.761719 C 51.910156 83.996094 51.730469 83.253906 51.457031 82.539062 C 51.183594 81.820312 50.828125 81.144531 50.386719 80.519531 C 48.585938 78.085938 47.035156 75.507812 45.734375 72.777344 C 45.253906 71.351562 44.554688 67.828125 42.726562 68.421875 Z M 42.726562 68.421875 " fill-opacity="1" fill-rule="nonzero"/><path fill="#9dcbf4" d="M 59.601562 44.441406 C 59.601562 44.441406 71.078125 41.535156 65.703125 49.898438 C 60.328125 58.257812 52.265625 63.902344 55.894531 73.207031 C 59.523438 82.507812 42.457031 67.695312 48.371094 61.617188 C 49.21875 60.714844 49.9375 59.71875 50.523438 58.628906 C 51.113281 57.539062 51.554688 56.394531 51.847656 55.191406 C 52.140625 53.984375 52.273438 52.765625 52.25 51.527344 C 52.222656 50.289062 52.042969 49.070312 51.703125 47.882812 C 51.703125 47.882812 56.164062 43.363281 59.601562 44.441406 Z M 59.601562 44.441406 " fill-opacity="1" fill-rule="nonzero"/><path stroke-linecap="round" transform="matrix(2.687268, 0, 0, 2.688419, -20.289871, -22.985814)" fill="none" stroke-linejoin="round" d="M 30.190411 34.359425 L 35.00042 28.890365 C 35.119616 28.753784 35.22573 28.607031 35.315854 28.450108 C 35.407432 28.293185 35.481566 28.128997 35.541164 27.957544 C 35.599309 27.786091 35.641464 27.611732 35.664721 27.431561 C 35.689433 27.25139 35.695247 27.071219 35.685072 26.891049 C 35.673443 26.709425 35.644371 26.530707 35.599309 26.356348 C 35.552793 26.180536 35.490288 26.011989 35.410339 25.849254 C 35.331844 25.685066 35.237359 25.532502 35.126884 25.387202 C 35.017863 25.243356 34.89576 25.111134 34.760573 24.990536 C 34.623934 24.869937 34.477119 24.765322 34.320128 24.673784 C 34.163138 24.583698 34.000333 24.508143 33.828807 24.450023 C 33.65728 24.39045 33.481393 24.349766 33.301145 24.325066 C 33.12235 24.300365 32.942102 24.294553 32.760401 24.304724 C 32.580152 24.316348 32.401358 24.345407 32.225471 24.39045 C 32.051037 24.436946 31.880964 24.499425 31.718159 24.579339 C 31.555354 24.659254 31.401271 24.752245 31.257364 24.862672 C 31.113456 24.971647 30.979723 25.095151 30.860527 25.230279 C 30.447701 25.130023 30.02906 25.079168 29.604604 25.080621 C 29.180149 25.082074 28.761508 25.134382 28.350136 25.236091 C 27.937309 25.339254 27.54338 25.490365 27.168347 25.687972 C 26.793315 25.887031 26.447355 26.126775 26.130467 26.410108 " stroke="#2a5080" stroke-width="2" stroke-opacity="1" stroke-miterlimit="4"/><path stroke-linecap="round" transform="matrix(2.687268, 0, 0, 2.688419, -20.289871, -22.985814)" fill="none" stroke-linejoin="round" d="M 28.13064 28.349852 L 25.999642 30.699339 C 25.880445 30.83592 25.774331 30.982673 25.684207 31.139596 C 25.59263 31.296519 25.518495 31.460707 25.458897 31.63216 C 25.400753 31.803613 25.358598 31.979425 25.33534 32.158143 C 25.310629 32.338314 25.30336 32.518484 25.314989 32.700108 C 25.326618 32.880279 25.354237 33.058997 25.400753 33.233356 C 25.447268 33.409168 25.509774 33.577715 25.589722 33.741903 C 25.668218 33.904638 25.762703 34.058655 25.873177 34.202502 C 25.982198 34.347801 26.104302 34.480023 26.239488 34.600621 " stroke="#2a5080" stroke-width="2" stroke-opacity="1" stroke-miterlimit="4"/><g clip-path="url(#706285548f)"><path stroke-linecap="round" transform="matrix(2.687268, 0, 0, 2.688419, -20.289871, -22.985814)" fill="none" stroke-linejoin="round" d="M 26.290364 34.609339 L 29.729615 38.039852 L 29.729615 45.380365 L 25.819393 45.380365 L 25.819393 43.490023 " stroke="#2a5080" stroke-width="2" stroke-opacity="1" stroke-miterlimit="4"/></g><path stroke-linecap="round" transform="matrix(2.687268, 0, 0, 2.688419, -20.289871, -22.985814)" fill="none" stroke-linejoin="round" d="M 35.689433 27.47951 L 35.689433 35.78045 " stroke="#2a5080" stroke-width="2" stroke-opacity="1" stroke-miterlimit="4"/><path stroke-linecap="round" transform="matrix(2.687268, 0, 0, 2.688419, -20.289871, -22.985814)" fill="none" stroke-linejoin="round" d="M 34.799821 25.000707 L 33.229918 23.440194 C 33.08601 23.296348 32.936288 23.159766 32.779298 23.031903 C 32.622307 22.902587 32.459502 22.781989 32.290883 22.668655 C 32.12081 22.555322 31.94783 22.450707 31.769036 22.356262 C 31.588788 22.260365 31.405632 22.173185 31.218116 22.094724 C 31.0306 22.017715 30.840176 21.949425 30.645392 21.889852 C 30.450608 21.831732 30.25437 21.782331 30.055225 21.741647 C 29.85608 21.702416 29.655481 21.673356 29.453429 21.653014 C 29.251376 21.632672 29.04787 21.622501 28.844364 21.622501 C 28.642312 21.622501 28.438806 21.632672 28.236754 21.653014 C 28.034701 21.673356 27.834103 21.702416 27.634957 21.741647 C 27.435812 21.782331 27.239574 21.831732 27.04479 21.889852 C 26.850006 21.949425 26.659582 22.017715 26.472066 22.094724 C 26.28455 22.173185 26.101395 22.260365 25.921146 22.356262 C 25.742352 22.450707 25.567918 22.555322 25.399299 22.668655 C 25.23068 22.781989 25.067875 22.902587 24.910885 23.031903 C 24.753894 23.159766 24.604172 23.296348 24.460264 23.440194 L 23.800324 24.099852 L 28.13064 28.370194 L 39.130137 39.219681 " stroke="#2a5080" stroke-width="2" stroke-opacity="1" stroke-miterlimit="4"/><g clip-path="url(#4349e96690)"><path stroke-linecap="round" transform="matrix(2.687268, 0, 0, 2.688419, -20.289871, -22.985814)" fill="none" stroke-linejoin="round" d="M 25.819393 31.010279 L 13.780562 45.380365 L 18.910366 45.380365 L 22.410669 39.989767 " stroke="#2a5080" stroke-width="2" stroke-opacity="1" stroke-miterlimit="4"/></g><g clip-path="url(#c85961b237)"><path stroke-linecap="round" transform="matrix(2.687268, 0, 0, 2.688419, -20.289871, -22.985814)" fill="none" stroke-linejoin="round" d="M 39.169385 39.199339 L 36.250528 44.200536 C 36.182208 44.316775 36.147321 44.441733 36.147321 44.576861 C 36.145868 44.711989 36.179301 44.836946 36.246167 44.954638 C 36.313033 45.070878 36.406065 45.162416 36.522354 45.230707 C 36.640096 45.297544 36.765107 45.330963 36.900293 45.32951 L 49.469694 45.32951 C 49.60488 45.330963 49.729891 45.297544 49.847634 45.230707 C 49.963923 45.162416 50.056954 45.070878 50.12382 44.954638 C 50.190687 44.836946 50.22412 44.711989 50.22412 44.576861 C 50.222666 44.441733 50.187779 44.316775 50.119459 44.200536 L 45.270203 35.799339 C 45.217873 35.709254 45.158275 35.622074 45.094316 35.539254 C 45.030357 35.45498 44.962037 35.376519 44.886449 35.302416 C 44.812315 35.228314 44.733819 35.15857 44.64951 35.094638 C 44.566654 35.030707 44.479437 34.972587 44.387859 34.920279 C 44.297735 34.867972 44.20325 34.821476 44.105858 34.780792 C 44.008466 34.741561 43.90962 34.708143 43.807867 34.680536 C 43.706114 34.652929 43.602908 34.632587 43.499701 34.61951 C 43.395041 34.60498 43.290381 34.599168 43.18572 34.599168 C 43.079607 34.599168 42.974946 34.60498 42.870286 34.61951 C 42.76708 34.632587 42.663873 34.652929 42.56212 34.680536 C 42.460367 34.708143 42.361521 34.741561 42.264129 34.780792 C 42.166737 34.821476 42.072252 34.867972 41.982128 34.920279 C 41.89055 34.972587 41.803334 35.030707 41.720478 35.094638 C 41.636168 35.15857 41.557673 35.228314 41.483538 35.302416 C 41.409404 35.376519 41.339631 35.45498 41.275672 35.539254 C 41.211713 35.622074 41.152114 35.709254 41.099784 35.799339 " stroke="#2a5080" stroke-width="2" stroke-opacity="1" stroke-miterlimit="4"/></g><path fill="#a8a8a8" d="M 75.78125 41.859375 C 74.355469 38.632812 78.84375 34.546875 78.039062 30.808594 C 77.230469 27.074219 83.976562 28.902344 83.976562 28.902344 C 83.976562 28.902344 86.125 36 83.976562 38.605469 C 81.828125 41.214844 77.175781 45.085938 75.753906 41.832031 " fill-opacity="1" fill-rule="nonzero"/><g clip-path="url(#616da71a89)"><path stroke-linecap="round" transform="matrix(2.687268, 0, 0, 2.688419, -20.289871, -22.985814)" fill="none" stroke-linejoin="round" d="M 38.759466 23.550621 C 38.920817 23.553527 39.080714 23.54045 39.239158 23.512843 C 39.397602 23.483784 39.551685 23.441647 39.701408 23.382074 C 39.85113 23.323954 39.995038 23.251305 40.130224 23.165578 C 40.26541 23.078399 40.391874 22.979595 40.508163 22.869168 C 40.624453 22.757288 40.729113 22.63669 40.822144 22.504467 C 40.913722 22.372245 40.992217 22.232758 41.05763 22.086006 C 41.123042 21.939254 41.173919 21.786689 41.208805 21.629766 C 41.243692 21.472843 41.264043 21.314467 41.26695 21.153185 C 41.271311 20.991903 41.259682 20.832074 41.232063 20.673698 C 41.205898 20.515322 41.163743 20.359852 41.105599 20.210194 C 41.047454 20.060536 40.976227 19.916689 40.890464 19.780108 C 40.804701 19.64498 40.707309 19.517117 40.596834 19.400877 C 40.486359 19.283185 40.364256 19.17857 40.23343 19.085578 C 40.102605 18.992587 39.963058 18.912672 39.816243 18.847288 C 39.669428 18.78045 39.518252 18.729595 39.361262 18.693271 C 39.204272 18.656946 39.045828 18.636604 38.884477 18.632245 C 38.724579 18.626433 38.564681 18.638057 38.404784 18.664211 C 38.24634 18.690365 38.092257 18.731048 37.941081 18.787715 C 37.791359 18.844382 37.647451 18.915578 37.510811 19.001305 C 37.374172 19.085578 37.246253 19.182929 37.128511 19.293356 C 37.010768 19.40233 36.906108 19.522929 36.811623 19.653698 C 36.717138 19.784467 36.637189 19.922501 36.570323 20.069254 C 36.503457 20.216006 36.451127 20.367117 36.414786 20.52404 C 36.376992 20.680963 36.356642 20.839339 36.349374 21.000621 " stroke="#2a5080" stroke-width="2" stroke-opacity="1" stroke-miterlimit="4"/></g><path fill="#3897d3" d="M 51.78125 85.867188 C 51.78125 86.226562 51.714844 86.566406 51.578125 86.898438 C 51.441406 87.226562 51.246094 87.515625 50.996094 87.769531 C 50.742188 88.019531 50.453125 88.214844 50.125 88.351562 C 49.792969 88.488281 49.453125 88.558594 49.09375 88.558594 C 48.738281 88.558594 48.394531 88.488281 48.066406 88.351562 C 47.738281 88.214844 47.445312 88.019531 47.195312 87.769531 C 46.941406 87.515625 46.75 87.226562 46.613281 86.898438 C 46.476562 86.566406 46.40625 86.226562 46.40625 85.867188 C 46.40625 85.511719 46.476562 85.167969 46.613281 84.839844 C 46.75 84.511719 46.941406 84.21875 47.195312 83.96875 C 47.445312 83.714844 47.738281 83.519531 48.066406 83.382812 C 48.394531 83.25 48.738281 83.179688 49.09375 83.179688 C 49.453125 83.179688 49.792969 83.25 50.125 83.382812 C 50.453125 83.519531 50.742188 83.714844 50.996094 83.96875 C 51.246094 84.21875 51.441406 84.511719 51.578125 84.839844 C 51.714844 85.167969 51.78125 85.511719 51.78125 85.867188 Z M 51.78125 85.867188 " fill-opacity="1" fill-rule="nonzero"/><g fill="#2a5080" fill-opacity="1"><g transform="translate(10.851435, 118.034231)"><g><path d="M 2.4375 -1.25 L 5.953125 -1.25 L 5.953125 0 L 1.0625 0 L 1.0625 -8.125 L 2.4375 -8.125 Z M 2.4375 -1.25 "/></g></g></g><g fill="#2a5080" fill-opacity="1"><g transform="translate(22.165807, 118.034231)"><g><path d="M 6.875 -6.890625 L 2.4375 -6.890625 L 2.4375 -4.703125 L 6.40625 -4.703125 L 6.40625 -3.46875 L 2.4375 -3.46875 L 2.4375 -1.234375 L 7.015625 -1.234375 L 7.015625 0 L 1.0625 0 L 1.0625 -8.125 L 6.875 -8.125 Z M 6.875 -6.890625 "/></g></g></g><g fill="#2a5080" fill-opacity="1"><g transform="translate(34.897292, 118.034231)"><g><path d="M 6.3125 -1.828125 L 2.21875 -1.828125 L 1.4375 0 L 0.015625 0 L 3.59375 -8.125 L 5 -8.125 L 8.5625 0 L 7.09375 0 Z M 5.796875 -3.046875 L 4.265625 -6.65625 L 2.734375 -3.046875 Z M 5.796875 -3.046875 "/></g></g></g><g fill="#2a5080" fill-opacity="1"><g transform="translate(48.581261, 118.034231)"><g><path d="M 1.0625 -8.125 L 4.40625 -8.125 C 5.613281 -8.125 6.613281 -7.738281 7.40625 -6.96875 C 8.207031 -6.207031 8.609375 -5.238281 8.609375 -4.0625 C 8.609375 -2.882812 8.207031 -1.910156 7.40625 -1.140625 C 6.613281 -0.378906 5.597656 0 4.359375 0 L 1.0625 0 Z M 2.4375 -6.890625 L 2.4375 -1.234375 L 4.4375 -1.234375 C 5.226562 -1.234375 5.890625 -1.5 6.421875 -2.03125 C 6.953125 -2.5625 7.21875 -3.234375 7.21875 -4.046875 C 7.21875 -4.867188 6.941406 -5.546875 6.390625 -6.078125 C 5.847656 -6.617188 5.175781 -6.890625 4.375 -6.890625 Z M 2.4375 -6.890625 "/></g></g></g><g fill="#2a5080" fill-opacity="1"><g transform="translate(62.695008, 118.034231)"><g><path d="M 9.65625 0 L 8.390625 0 L 8.375 -6.078125 L 5.8125 -0.84375 L 4.921875 -0.84375 L 2.359375 -6.078125 L 2.359375 0 L 1.0625 0 L 1.0625 -8.125 L 2.6875 -8.125 L 5.375 -2.734375 L 8.046875 -8.125 L 9.65625 -8.125 Z M 9.65625 0 "/></g></g></g><g fill="#2a5080" fill-opacity="1"><g transform="translate(78.551109, 118.034231)"><g><path d="M 2.4375 0 L 1.0625 0 L 1.0625 -8.125 L 2.4375 -8.125 Z M 2.4375 0 "/></g></g></g><g fill="#2a5080" fill-opacity="1"><g transform="translate(87.170641, 118.034231)"><g><path d="M 8.109375 0 L 6.765625 0 L 2.4375 -5.828125 L 2.4375 0 L 1.0625 0 L 1.0625 -8.125 L 2.421875 -8.125 L 6.765625 -2.28125 L 6.765625 -8.125 L 8.109375 -8.125 Z M 8.109375 0 "/></g></g></g><g fill="#2a5080" fill-opacity="1"><g transform="translate(101.481855, 118.034231)"><g><path d="M 6.875 -6.890625 L 2.4375 -6.890625 L 2.4375 -4.703125 L 6.40625 -4.703125 L 6.40625 -3.46875 L 2.4375 -3.46875 L 2.4375 -1.234375 L 7.015625 -1.234375 L 7.015625 0 L 1.0625 0 L 1.0625 -8.125 L 6.875 -8.125 Z M 6.875 -6.890625 "/></g></g></g><g fill="#2a5080" fill-opacity="1"><g transform="translate(114.21334, 118.034231)"><g><path d="M 6.21875 0 L 4.734375 -2.46875 C 4.660156 -2.457031 4.535156 -2.453125 4.359375 -2.453125 L 2.4375 -2.453125 L 2.4375 0 L 1.0625 0 L 1.0625 -8.125 L 4.359375 -8.125 C 5.398438 -8.125 6.207031 -7.878906 6.78125 -7.390625 C 7.351562 -6.910156 7.640625 -6.234375 7.640625 -5.359375 C 7.640625 -4.703125 7.492188 -4.148438 7.203125 -3.703125 C 6.910156 -3.253906 6.492188 -2.925781 5.953125 -2.71875 L 7.78125 0 Z M 2.4375 -3.6875 L 4.359375 -3.6875 C 5.679688 -3.6875 6.34375 -4.226562 6.34375 -5.3125 C 6.34375 -6.363281 5.679688 -6.890625 4.359375 -6.890625 L 2.4375 -6.890625 Z M 2.4375 -3.6875 "/></g></g></g></svg>