<svg xmlns="http://www.w3.org/2000/svg" xmlns:xlink="http://www.w3.org/1999/xlink" width="180" zoomAndPan="magnify" viewBox="0 0 135 135.000003" height="180" preserveAspectRatio="xMidYMid meet" version="1.0"><defs><clipPath id="7c8ec9fcca"><path d="M 0.496094 0 L 134.503906 0 L 134.503906 134.007812 L 0.496094 134.007812 Z M 0.496094 0 " clip-rule="nonzero"/></clipPath><clipPath id="bb4cda789f"><path d="M 41.644531 18 L 93 18 L 93 117 L 41.644531 117 Z M 41.644531 18 " clip-rule="nonzero"/></clipPath></defs><g clip-path="url(#7c8ec9fcca)"><path fill="#ffffff" d="M 0.496094 0 L 134.503906 0 L 134.503906 141.453125 L 0.496094 141.453125 Z M 0.496094 0 " fill-opacity="1" fill-rule="nonzero"/><path fill="#ffffff" d="M 0.496094 0 L 134.503906 0 L 134.503906 134.007812 L 0.496094 134.007812 Z M 0.496094 0 " fill-opacity="1" fill-rule="nonzero"/><path fill="#ffffff" d="M 0.496094 0 L 134.503906 0 L 134.503906 134.007812 L 0.496094 134.007812 Z M 0.496094 0 " fill-opacity="1" fill-rule="nonzero"/></g><g clip-path="url(#bb4cda789f)"><path fill="#000000" d="M 91.179688 112.828125 C 87.488281 106.304688 83.730469 99.816406 79.96875 93.332031 C 79.679688 92.835938 79.566406 92.355469 79.476562 91.804688 C 77.9375 82.492188 76.386719 73.1875 74.246094 63.992188 C 73.605469 61.242188 73.113281 58.457031 72.480469 55.335938 C 74.625 56.621094 76.394531 57.652344 78.136719 58.726562 C 79.882812 59.804688 81.609375 60.921875 83.335938 62.035156 C 84.167969 62.570312 85.085938 63.222656 85.816406 62.097656 C 86.46875 61.097656 85.804688 60.308594 84.988281 59.648438 C 82.628906 57.742188 80.046875 56.199219 77.375 54.800781 C 71.316406 51.628906 71.320312 51.625 70.148438 44.976562 C 69.988281 44.066406 70.058594 43.347656 70.734375 42.539062 C 72.707031 40.1875 73.546875 37.40625 73.390625 34.292969 C 73.109375 28.726562 69.027344 24.964844 63.539062 25.21875 C 61.988281 25.289062 60.5625 25.945312 58.996094 26.15625 C 59.6875 23.207031 65.382812 21.230469 68.699219 21.75 C 71.054688 22.117188 72.542969 23.410156 73.054688 25.785156 C 73.257812 26.730469 73.414062 27.683594 73.621094 28.625 C 74.023438 30.4375 74.289062 32.296875 75.277344 33.921875 C 77.164062 37.027344 81.265625 37.582031 83.726562 35.074219 C 84.359375 34.425781 84.710938 33.652344 84.160156 32.855469 C 83.625 32.078125 82.984375 32.589844 82.367188 32.925781 C 79.5 34.496094 77.960938 33.882812 77.0625 30.6875 C 76.503906 28.699219 76.207031 26.640625 75.71875 24.632812 C 75.226562 22.617188 74.1875 20.972656 72.339844 19.910156 C 67.785156 17.292969 59.921875 19.160156 57.109375 23.609375 C 56.628906 24.367188 56.203125 24.558594 55.335938 24.492188 C 50.554688 24.125 46.933594 27.785156 47.179688 32.613281 C 47.28125 34.578125 47.871094 36.398438 48.5625 38.207031 C 49.253906 40.007812 49.902344 41.828125 49.804688 43.820312 C 49.625 47.507812 47.347656 49.152344 43.980469 47.976562 C 43.304688 47.742188 42.605469 47.429688 42.152344 48.183594 C 41.640625 49.039062 42.042969 49.828125 42.765625 50.34375 C 45.019531 51.945312 48.355469 53.027344 51.050781 49.925781 C 53.746094 46.820312 53.769531 43.289062 52.460938 39.625 C 51.765625 37.683594 50.832031 35.828125 50.15625 33.878906 C 49.394531 31.675781 49.785156 29.636719 51.582031 28.046875 C 53.261719 26.558594 55.09375 26.414062 57.070312 27.703125 C 55.253906 29.875 53.914062 32.316406 53.316406 35.136719 C 51.882812 41.863281 56.597656 47.164062 63.308594 46.535156 C 64.757812 46.402344 66.359375 44.671875 67.390625 45.871094 C 68.273438 46.902344 68.070312 48.882812 68.347656 50.441406 C 68.371094 50.578125 68.378906 50.722656 68.433594 50.84375 C 68.949219 52.03125 68.554688 52.625 67.367188 53.15625 C 63.0625 55.089844 58.851562 57.226562 54.851562 59.757812 C 53.675781 60.5 51.921875 61.421875 52.9375 63.058594 C 53.8125 64.46875 55.335938 63.273438 56.386719 62.660156 C 60.234375 60.425781 64.0625 58.148438 67.804688 55.742188 C 69.15625 54.871094 69.53125 55.09375 69.855469 56.585938 C 72.289062 67.761719 74.820312 78.914062 76.597656 90.222656 C 76.761719 91.273438 76.632812 92.078125 76.09375 92.933594 C 72.960938 97.902344 70.785156 103.347656 68.445312 108.707031 C 68.007812 109.703125 67.757812 110.792969 67.507812 111.859375 C 67.355469 112.511719 67.59375 113.097656 68.265625 113.390625 C 68.9375 113.683594 69.539062 113.410156 69.902344 112.898438 C 70.414062 112.179688 70.816406 111.367188 71.183594 110.554688 C 73.398438 105.667969 75.585938 100.773438 77.9375 95.535156 C 78.453125 96.453125 78.722656 96.925781 78.984375 97.398438 C 82.132812 103.125 85.09375 108.960938 88.765625 114.378906 C 89.386719 115.292969 89.984375 117.039062 91.507812 116.058594 C 93.011719 115.089844 91.730469 113.800781 91.179688 112.828125 Z M 68.898438 40.296875 C 66.214844 43.558594 60.816406 44.136719 57.617188 41.507812 C 55.507812 39.777344 55.164062 36.085938 56.800781 32.878906 C 56.808594 32.875 56.816406 32.871094 56.824219 32.867188 C 56.824219 32.855469 56.824219 32.84375 56.824219 32.832031 C 56.824219 32.832031 56.789062 32.867188 56.765625 32.890625 L 56.75 32.90625 C 57.039062 30.960938 58.074219 29.414062 59.570312 28.285156 C 61.152344 27.09375 66.167969 27.714844 67.8125 29.121094 C 71.03125 31.871094 71.539062 37.085938 68.898438 40.296875 Z M 67.707031 37.015625 C 66.34375 39.222656 64.40625 40.429688 61.390625 40.503906 C 61.40625 40.507812 61.007812 40.421875 60.609375 40.339844 C 59.648438 40.148438 58.496094 39.875 58.628906 38.695312 C 58.785156 37.285156 60.113281 37.71875 60.949219 37.863281 C 63.117188 38.238281 64.625 37.410156 65.8125 35.648438 C 66.242188 35.011719 66.722656 34.007812 67.714844 34.675781 C 68.722656 35.347656 68.195312 36.222656 67.707031 37.015625 Z M 64.609375 31.339844 C 64.640625 30.507812 64.957031 29.902344 65.90625 29.898438 C 66.808594 30.015625 67.179688 30.570312 67.152344 31.429688 C 67.121094 32.332031 66.632812 32.839844 65.746094 32.746094 C 64.984375 32.667969 64.574219 32.136719 64.609375 31.339844 Z M 56.824219 32.867188 C 57.101562 32.722656 57.367188 32.542969 57.660156 32.464844 C 58.621094 32.195312 59.308594 32.550781 59.5 33.550781 C 59.671875 34.460938 59.144531 35.035156 58.304688 35.160156 C 57.40625 35.292969 56.902344 34.761719 56.820312 33.859375 C 56.789062 33.53125 56.820312 33.195312 56.824219 32.867188 Z M 56.824219 32.867188 " fill-opacity="1" fill-rule="nonzero"/></g></svg>